<svg xmlns="http://www.w3.org/2000/svg" width="2170" height="927" viewBox="55 45 2170 927" role="img" aria-labelledby="title desc">
  <title id="title">INT4 CUDA Inference Project Overview</title>
  <desc id="desc">A spacious paper-style overview figure showing the baseline LSQ path, converted low-bit path, runtime backend, evaluation scripts, and shared dataset/tests.</desc>

  <defs>
    <style>
      .bg { fill: #ffffff; }

      .title { font: 700 28px sans-serif; fill: #111827; }
      .subtitle { font: 400 16px sans-serif; fill: #4b5563; }

      .section { font: 700 18px sans-serif; fill: #1f2937; }
      .label { font: 700 17px sans-serif; fill: #111827; }
      .small { font: 400 15px sans-serif; fill: #6b7280; }
      .mono { font: 400 13px monospace; fill: #6b7280; }
      .legend { font: 600 13px sans-serif; fill: #1f2937; }

      .box {
        fill: #ffffff;
        stroke: #4b5563;
        stroke-width: 2;
        rx: 16;
      }
      .boxBlue { fill: #eef4ff; stroke: #4a78d3; }
      .boxOrange { fill: #fff4ea; stroke: #d97706; }
      .boxGreen { fill: #eef9f1; stroke: #2f855a; }
      .boxGray { fill: #f8fafc; stroke: #7b8798; }

      .tagText { font: 700 11px sans-serif; fill: #ffffff; letter-spacing: 0.3px; }
      .tagFn { fill: #2563eb; }
      .tagSrc { fill: #ea580c; }
      .tagExt { fill: #64748b; }
      .tagData { fill: #16a34a; }

      .arrowBlue { stroke: #4a78d3; stroke-width: 3.5; fill: none; }
      .arrowOrange { stroke: #d97706; stroke-width: 3.5; fill: none; }
      .arrowGray { stroke: #94a3b8; stroke-width: 2.6; fill: none; }
      .arrowDashed { stroke: #94a3b8; stroke-width: 2.6; stroke-dasharray: 8 7; fill: none; }

      .guide { stroke: #e5e7eb; stroke-width: 1.5; fill: none; }
    </style>

    <marker id="arrow-blue" markerUnits="userSpaceOnUse" markerWidth="12" markerHeight="12" viewBox="0 0 12 12" refX="10" refY="6" orient="auto">
      <path d="M0,0 L12,6 L0,12 z" fill="#4a78d3"/>
    </marker>
    <marker id="arrow-orange" markerUnits="userSpaceOnUse" markerWidth="12" markerHeight="12" viewBox="0 0 12 12" refX="10" refY="6" orient="auto">
      <path d="M0,0 L12,6 L0,12 z" fill="#d97706"/>
    </marker>
    <marker id="arrow-gray" markerUnits="userSpaceOnUse" markerWidth="12" markerHeight="12" viewBox="0 0 12 12" refX="10" refY="6" orient="auto">
      <path d="M0,0 L12,6 L0,12 z" fill="#94a3b8"/>
    </marker>
  </defs>

  <rect x="0" y="0" width="2280" height="1000" class="bg"/>

  <!-- Title -->
  <text x="70" y="70" class="title">INT4 CUDA Inference: Project Overview</text>
  <text x="70" y="100" class="subtitle">LSQ checkpoint import → selective module conversion → INT4/INT8 runtime backend → evaluation, profiling, and benchmarks</text>

  <!-- Section headings -->
  <text x="110" y="160" class="section">Inputs</text>
  <text x="560" y="160" class="section">Load / Convert</text>
  <text x="1040" y="160" class="section">Models / Modules</text>
  <text x="1510" y="160" class="section">Runtime</text>
  <text x="1900" y="160" class="section">Evaluation</text>

  <!-- guides -->
  <line x1="70" y1="185" x2="2200" y2="185" class="guide"/>
  <line x1="70" y1="790" x2="2200" y2="790" class="guide"/>

  <!-- row labels -->
  <text x="70" y="220" class="section">Baseline path</text>
  <text x="70" y="520" class="section">Converted low-bit path</text>
  <text x="70" y="840" class="section">Shared data / tests</text>

  <!-- Baseline row -->
  <rect x="100" y="250" width="310" height="110" class="box boxGray"/>
  <rect x="120" y="264" width="64" height="22" rx="11" class="tagExt"/>
  <text x="128" y="279" class="tagText">External</text>
  <text x="125" y="308" class="label">LSQ repo</text>
  <text x="125" y="330" class="small">Model definitions and</text>
  <text x="125" y="345" class="small">LSQ quantization baseline</text>

  <rect x="540" y="250" width="310" height="110" class="box boxBlue"/>
  <rect x="560" y="264" width="64" height="22" rx="11" class="tagFn"/>
  <text x="568" y="279" class="tagText">Function</text>
  <text x="565" y="308" class="label">build_lsq_model_from_ckpt(...)</text>
  <text x="565" y="330" class="mono">quant_pipeline/integration/</text>
  <text x="565" y="345" class="mono">lsq_adapter.py</text>

  <rect x="1020" y="250" width="310" height="110" class="box boxBlue"/>
  <text x="1045" y="308" class="label">Native LSQ model</text>
  <text x="1045" y="330" class="small">Unmodified model path used as</text>
  <text x="1045" y="345" class="small">the baseline</text>

  <rect x="1880" y="250" width="310" height="110" class="box boxBlue"/>
  <rect x="1900" y="264" width="64" height="22" rx="11" class="tagSrc"/>
  <text x="1912" y="279" class="tagText">Source</text>
  <text x="1905" y="308" class="label">Native LSQ evaluation</text>
  <text x="1905" y="330" class="mono">scripts/eval_lsq_imagenet.py</text>

  <!-- Converted row -->
  <rect x="100" y="550" width="310" height="110" class="box boxGray"/>
  <rect x="120" y="564" width="64" height="22" rx="11" class="tagExt"/>
  <text x="128" y="579" class="tagText">External</text>
  <text x="125" y="608" class="label">FP / LSQ checkpoints</text>
  <text x="125" y="630" class="small">Weights and quantization scales</text>

  <rect x="540" y="550" width="310" height="110" class="box boxOrange"/>
  <rect x="560" y="564" width="64" height="22" rx="11" class="tagFn"/>
  <text x="568" y="579" class="tagText">Function</text>
  <text x="565" y="608" class="label">convert_lsq_modules(...)</text>
  <text x="565" y="630" class="mono">quant_pipeline/integration/</text>
  <text x="565" y="645" class="mono">lsq_adapter.py</text>

  <rect x="1020" y="520" width="310" height="110" class="box boxOrange"/>
  <rect x="1040" y="534" width="64" height="22" rx="11" class="tagSrc"/>
  <text x="1052" y="549" class="tagText">Source</text>
  <text x="1045" y="578" class="label">Custom low-bit modules</text>
  <text x="1045" y="600" class="mono">quant_pipeline/ops/int4_linear.py</text>
  <text x="1045" y="615" class="mono">quant_pipeline/ops/int4_conv2d.py</text>

  <rect x="1020" y="660" width="310" height="110" class="box boxOrange"/>
  <text x="1045" y="718" class="label">Converted LSQ model</text>
  <text x="1045" y="740" class="small">Partially replaced model for</text>
  <text x="1045" y="755" class="small">converted runs</text>

  <rect x="1470" y="520" width="330" height="185" class="box boxOrange"/>
  <rect x="1490" y="534" width="60" height="22" rx="11" class="tagSrc"/>
  <text x="1502" y="549" class="tagText">Source</text>
  <text x="1495" y="583" class="label">Custom runtime backend</text>
  <text x="1495" y="617" class="mono">quant_pipeline/ops/int4_int8_gemm.py</text>
  <text x="1495" y="643" class="mono">csrc/int4_int8_ext.cpp</text>
  <text x="1495" y="669" class="mono">csrc/int4_int8_kernels.cu</text>

  <rect x="1880" y="490" width="340" height="118" class="box boxOrange"/>
  <rect x="1900" y="504" width="60" height="22" rx="11" class="tagSrc"/>
  <text x="1912" y="519" class="tagText">Source</text>
  <text x="1905" y="553" class="label">Converted eval + profiling</text>
  <text x="1905" y="581" class="mono">eval_lsq_imagenet.py</text>
  <text x="1905" y="600" class="mono">profile_lsq_inference.py</text>

  <rect x="1880" y="640" width="340" height="110" class="box boxOrange"/>
  <rect x="1900" y="654" width="60" height="22" rx="11" class="tagSrc"/>
  <text x="1912" y="669" class="tagText">Source</text>
  <text x="1905" y="702" class="label">Benchmarks</text>
  <text x="1905" y="725" class="mono">benchmark_lsq_fc.py</text>
  <text x="1905" y="744" class="mono">benchmark_inference.py</text>

  <!-- Shared row -->
  <rect x="300" y="850" width="380" height="90" class="box boxGreen"/>
  <rect x="320" y="864" width="48" height="20" rx="10" class="tagData"/>
  <text x="334" y="878" class="tagText">Data</text>
  <text x="325" y="908" class="label">ImageNet val dataset</text>
  <text x="325" y="928" class="small">Used by native eval and converted profiling</text>

  <rect x="1500" y="850" width="320" height="90" class="box boxGreen"/>
  <rect x="1520" y="864" width="60" height="20" rx="10" class="tagSrc"/>
  <text x="1532" y="878" class="tagText">Source</text>
  <text x="1525" y="908" class="label">tests/test_int4_pack.py</text>
  <text x="1525" y="928" class="small">Validates the packing utilities path</text>

  <!-- Baseline arrows -->
  <path d="M410 305 H540" class="arrowBlue" marker-end="url(#arrow-blue)"/>
  <path d="M850 305 H1020" class="arrowBlue" marker-end="url(#arrow-blue)"/>
  <path d="M1330 305 H1880" class="arrowBlue" marker-end="url(#arrow-blue)"/>

  <!-- Converted arrows -->
  <path d="M410 605 H540" class="arrowGray" marker-end="url(#arrow-gray)"/>
  <path d="M695 360 V550" class="arrowOrange" marker-end="url(#arrow-orange)"/>
  <path d="M850 605 C915 605, 945 575, 1020 575" class="arrowOrange" marker-end="url(#arrow-orange)"/>
  <path d="M1175 630 V660" class="arrowOrange" marker-end="url(#arrow-orange)"/>
  <path d="M1330 715 C1390 715, 1410 612, 1470 612" class="arrowOrange" marker-end="url(#arrow-orange)"/>
  <path d="M1800 549 C1830 549, 1848 549, 1880 549" class="arrowOrange" marker-end="url(#arrow-orange)"/>
  <path d="M1800 678 C1830 678, 1848 695, 1880 695" class="arrowOrange" marker-end="url(#arrow-orange)"/>

  <!-- Shared arrows -->
  <path d="M680 895 H1760 V305 H1880" class="arrowDashed" marker-end="url(#arrow-gray)"/>
  <path d="M680 920 H1790 V549 H1880" class="arrowDashed" marker-end="url(#arrow-gray)"/>
  <path d="M1660 850 V705" class="arrowGray" marker-end="url(#arrow-gray)"/>

  <!-- Legend -->
  <rect x="70" y="955" width="96" height="24" rx="12" fill="#eef4ff" stroke="#4a78d3" stroke-width="1.6"/>
  <text x="94" y="971" class="legend">Baseline</text>

  <rect x="185" y="955" width="126" height="24" rx="12" fill="#fff4ea" stroke="#d97706" stroke-width="1.6"/>
  <text x="202" y="971" class="legend">Converted path</text>

  <rect x="330" y="955" width="90" height="24" rx="12" fill="#eef9f1" stroke="#2f855a" stroke-width="1.6"/>
  <text x="353" y="971" class="legend">Shared</text>
</svg>
